PathFileType	4	(X/Y/Z)	./resultDataOpenSim/trcMotMarkerGrf/sub06/qtm-14-02.trc
DataRate	CameraRate	NumFrames	NumMarkers	Units	OrigDataRate	OrigDataStartFrame	OrigNumFrames
250.000000	250.000000	12	24	m	250.000000	495	565
Frame#	Time	L.Toe.Tip			R.Toe.Tip			L.Ankle.Lat			R.Ankle.Lat			L.Ankle.Med			R.Ankle.Med			L.Heel			R.Heel			L.Knee.Lat			R.Knee.Lat			L.Knee.Med			R.Knee.Med			L.Thigh.Upper			R.Thigh.Upper			L.ASIS			R.ASIS			V.Sacral			L.Acromium			R.Acromium			C7			L.Elbow			R.Elbow			L.Wrist.Lat			R.Wrist.Lat
		X1	Y1	Z1	X2	Y2	Z2	X3	Y3	Z3	X4	Y4	Z4	X5	Y5	Z5	X6	Y6	Z6	X7	Y7	Z7	X8	Y8	Z8	X9	Y9	Z9	X10	Y10	Z10	X11	Y11	Z11	X12	Y12	Z12	X13	Y13	Z13	X14	Y14	Z14	X15	Y15	Z15	X16	Y16	Z16	X17	Y17	Z17	X18	Y18	Z18	X19	Y19	Z19	X20	Y20	Z20	X21	Y21	Z21	X22	Y22	Z22	X23	Y23	Z23	X24	Y24	Z24

495	1.976	1.6395263	0.033069032	-0.11737503	1.6784966	0.071442214	0.10909958	1.5145869	0.074051465	-0.13833348	1.5678007	0.15417662	0.10478329	1.5143887	0.08873437	-0.052055874	1.6145273	0.1609832	0.023838026	1.4401225	0.050493193	-0.092498285	1.5226084	0.14932501	0.034777782	1.6009156	0.43826483	-0.15323709	1.7499125	0.49596226	0.13424903	1.5707611	0.44390018	-0.031479332	1.7485179	0.4798722	0.0059005173	1.5917756	0.83021112	-0.22044652	1.5808078	0.82612416	0.12684166	1.6609635	0.88176536	-0.17232268	1.6556686	0.89001725	0.070949555	1.4693087	0.94815454	-0.051150348	1.6095259	1.361761	-0.24402505	1.5730358	1.3534742	0.11782239	1.511684	1.3928961	-0.072755096	1.599887	1.0306063	-0.29739026	1.452519	1.0597844	0.19291388	1.8324946	0.9315665	-0.27302223	1.5668321	0.8469524	0.22312206
496	1.98	1.6395865	0.033042903	-0.11742201	1.6956117	0.070704061	0.1098627	1.5147609	0.074409796	-0.13823113	1.5826776	0.15009096	0.1051158	1.5149581	0.089140023	-0.052016188	1.6285628	0.15810878	0.024286828	1.4402965	0.051102595	-0.092248872	1.536629	0.14406221	0.035143734	1.6023091	0.43824525	-0.15345088	1.7564859	0.49690272	0.13355972	1.5729701	0.44395898	-0.031516353	1.754372	0.48101157	0.005571756	1.5955398	0.83020595	-0.22033919	1.5865043	0.82647735	0.12705892	1.6655521	0.88145826	-0.1723764	1.6608062	0.89007154	0.070618814	1.4744062	0.94831433	-0.050099867	1.6143244	1.3619774	-0.24391376	1.5775613	1.3534176	0.11793191	1.5163546	1.392993	-0.072692352	1.6069714	1.0305751	-0.29811213	1.4553029	1.0605678	0.19229332	1.8411504	0.9357862	-0.27122059	1.5656577	0.84629185	0.22435973
497	1.984	1.6396412	0.033022684	-0.11746748	1.7128021	0.070103796	0.11057625	1.5149421	0.074780214	-0.13815319	1.5977355	0.14601249	0.10545366	1.5154806	0.089563602	-0.051992291	1.6431521	0.15533935	0.024284589	1.4404646	0.051732969	-0.09203794	1.5519331	0.13840632	0.035166439	1.6037516	0.43822963	-0.15366816	1.7629346	0.49771184	0.13285805	1.5752671	0.44400991	-0.031576945	1.760172	0.48198335	0.005110609	1.5993557	0.83035953	-0.22028357	1.5921056	0.82671442	0.12725761	1.6703127	0.88122364	-0.17237304	1.6659439	0.89002002	0.070310585	1.4795032	0.94839072	-0.049009535	1.6191041	1.3621534	-0.24380238	1.582162	1.3533007	0.11806258	1.5210232	1.3930612	-0.072614383	1.614041	1.0305211	-0.29878819	1.4581462	1.0613135	0.19167342	1.8496669	0.93995646	-0.26943909	1.5645331	0.8456763	0.2255656
498	1.988	1.6396923	0.033007457	-0.1175115	1.7300483	0.069641101	0.11123396	1.5151346	0.075160335	-0.13809838	1.6129471	0.14195769	0.10579516	1.5159519	0.089999578	-0.051984327	1.6580805	0.15251142	0.024194849	1.4406289	0.052378865	-0.091876752	1.5677647	0.13264752	0.035182653	1.6052515	0.43821908	-0.15388809	1.7692658	0.49838696	0.13214325	1.5776319	0.44405966	-0.031668607	1.76585	0.48273507	0.0045899908	1.6031467	0.83045526	-0.22028674	1.5976188	0.82685108	0.12743075	1.6747764	0.88112748	-0.17258419	1.6710861	0.88986593	0.070025163	1.4844311	0.94837643	-0.048177881	1.6238641	1.3622913	-0.24369452	1.5867303	1.3531549	0.11820149	1.525688	1.393091	-0.072539025	1.6211055	1.0304441	-0.29943942	1.461032	1.0620224	0.19102477	1.8580471	0.94407561	-0.26768217	1.563477	0.84511446	0.22674081
499	1.992	1.6397399	0.032994205	-0.11755326	1.7473366	0.069313241	0.11183149	1.5153394	0.075540463	-0.13807323	1.6282712	0.13794515	0.1061411	1.5163872	0.090422409	-0.051990641	1.6728802	0.14963664	0.024315223	1.4407892	0.053037432	-0.091765298	1.5836649	0.12694948	0.035341551	1.6068156	0.43822	-0.15410679	1.7754758	0.49892753	0.13141028	1.5800352	0.44411255	-0.031785709	1.7713279	0.48321518	0.0041079263	1.6068953	0.83040849	-0.22034393	1.6030815	0.82689169	0.12758113	1.6783607	0.88105699	-0.17331363	1.6762333	0.88961142	0.06976179	1.4891405	0.94829529	-0.047710145	1.6286086	1.3623874	-0.24358693	1.5912403	1.3529941	0.11834136	1.5303508	1.3930757	-0.072463436	1.6281736	1.0303592	-0.3000589	1.463945	1.0627012	0.1903352	1.8662969	0.94813635	-0.26595663	1.5625	0.84461315	0.22788588
500	1.996	1.6397836	0.032980022	-0.1175925	1.7646577	0.069123163	0.11236025	1.5155547	0.075915444	-0.138084	1.6437049	0.13398541	0.10649538	1.5167738	0.090821789	-0.052003534	1.6872582	0.14687195	0.024680744	1.4409471	0.053705515	-0.091697026	1.5994798	0.12137889	0.035632258	1.6084276	0.43824182	-0.15432202	1.7815455	0.4993334	0.13065312	1.5824502	0.44417285	-0.03191656	1.7766038	0.48342701	0.0036834295	1.6106373	0.83026117	-0.22043172	1.6085071	0.8268412	0.12770936	1.6813134	0.88072866	-0.17440489	1.6813861	0.88926067	0.069521097	1.493691	0.94816727	-0.047497747	1.6333435	1.3624388	-0.24347462	1.5957094	1.3528208	0.11848005	1.5350101	1.3930131	-0.07237577	1.6352288	1.0303015	-0.30056045	1.4668846	1.0633506	0.18961679	1.8744176	0.95212723	-0.26426324	1.561604	0.84417172	0.22900437
501	2	1.6398229	0.032963563	-0.11763013	1.7820029	0.069083096	0.11281201	1.5157744	0.076288122	-0.1381257	1.659282	0.13007803	0.10685853	1.5170757	0.091210349	-0.052018779	1.7013859	0.14428716	0.025195356	1.4411074	0.054378609	-0.091667873	1.6151927	0.11600809	0.035986391	1.6100457	0.43828969	-0.15453423	1.7874433	0.49959993	0.12987311	1.5848803	0.44424214	-0.032063117	1.7817294	0.48342008	0.0032603405	1.6144015	0.83008052	-0.2205273	1.6137977	0.82671117	0.12779497	1.6847305	0.87987028	-0.17525279	1.6865488	0.88882166	0.069304313	1.4981639	0.94799092	-0.047373629	1.6380715	1.3624456	-0.24334787	1.6001594	1.3526325	0.11862317	1.5396598	1.3928999	-0.072271795	1.6422015	1.030302	-0.30073237	1.4698637	1.0639581	0.1888863	1.8824132	0.95603533	-0.2625923	1.5607763	0.84378679	0.23010004
502	2.004	1.6398547	0.032944468	-0.1176673	1.7993544	0.069208013	0.11317948	1.5159901	0.076663655	-0.13818354	1.6750326	0.12621492	0.10722575	1.5172969	0.091599505	-0.052045349	1.7157077	0.14180671	0.025789886	1.4412754	0.055053047	-0.091677374	1.6308663	0.11094287	0.036295347	1.6116411	0.43836104	-0.15473966	1.7931442	0.49971826	0.1290823	1.5873603	0.44431786	-0.03223705	1.7867424	0.48324131	0.0027840792	1.6181881	0.82990585	-0.22062219	1.6187041	0.82650542	0.12779226	1.6891846	0.87850965	-0.17553972	1.6917205	0.8883053	0.069112048	1.5026251	0.9477634	-0.047238817	1.6427916	1.3624084	-0.24319811	1.6045873	1.3524278	0.11877957	1.544297	1.3927375	-0.072155929	1.6490112	1.0303464	-0.30038868	1.472892	1.0645188	0.18814901	1.8902887	0.95985165	-0.26093555	1.5600089	0.84345643	0.23117542
503	2.008	1.6398762	0.03292235	-0.11770496	1.8166827	0.069506966	0.11345209	1.5161998	0.07704528	-0.13824641	1.6909515	0.12239526	0.10759433	1.5175042	0.091987693	-0.052098668	1.7304773	0.13932031	0.026458089	1.4414537	0.055730937	-0.091723297	1.6465677	0.10625632	0.036466054	1.6132507	0.43844796	-0.15492643	1.7986484	0.49967718	0.12829375	1.5899103	0.44439527	-0.032436784	1.7916476	0.4829066	0.0022408309	1.6219903	0.82974546	-0.2207087	1.6230404	0.8262109	0.12767415	1.6942002	0.87718349	-0.17554355	1.6968878	0.88772344	0.068944958	1.5071219	0.94748798	-0.047077327	1.6475043	1.3623316	-0.24302892	1.6089826	1.3522046	0.1189551	1.5489251	1.3925452	-0.07203593	1.6556886	1.0303629	-0.29971694	1.4759702	1.0650463	0.18740165	1.8980468	0.96357406	-0.25929629	1.5593315	0.84317557	0.23223211
504	2.012	1.6398871	0.03289747	-0.11774373	1.8339574	0.069979537	0.11362058	1.5164095	0.07743406	-0.13831226	1.7069984	0.11864223	0.1079703	1.5177559	0.092375965	-0.052186185	1.7456245	0.13676989	0.027141087	1.4416373	0.056422186	-0.091798435	1.6623542	0.10186572	0.036535706	1.61495	0.43854116	-0.15508629	1.8039787	0.49946387	0.1275142	1.5925067	0.44447007	-0.032647172	1.7964354	0.4824016	0.0016465395	1.6258087	0.82958988	-0.22077606	1.6270474	0.82581056	0.12749964	1.699125	0.87653972	-0.17566748	1.7020349	0.8870885	0.068804857	1.5116768	0.94716215	-0.046904311	1.6522072	1.3622229	-0.24284656	1.6133447	1.3519593	0.11914861	1.5535495	1.3923596	-0.071917086	1.6624095	1.0302607	-0.29929933	1.4790956	1.0655503	0.1866419	1.9056891	0.96720575	-0.25768183	1.5588119	0.84293548	0.2332671
505	2.016	1.6398884	0.032871275	-0.11778283	1.8511577	0.070617699	0.11368175	1.5166269	0.077829137	-0.13838303	1.7231245	0.1149973	0.10836633	1.5180397	0.092775797	-0.052303021	1.7609458	0.1341827	0.027699944	1.4418165	0.057136009	-0.091894659	1.6782933	0.097571723	0.036649256	1.6167684	0.4386317	-0.15522718	1.8091554	0.49906771	0.12674872	1.5951042	0.44453994	-0.03285916	1.8011083	0.48169458	0.0010162707	1.6296528	0.82942621	-0.22082285	1.6312681	0.82530268	0.12738236	1.7037201	0.87664035	-0.17604068	1.7071604	0.88641322	0.068694322	1.5162886	0.94677976	-0.046725409	1.6568942	1.3620863	-0.24264677	1.6176679	1.3516895	0.11935436	1.5581722	1.3922042	-0.071797119	1.6693563	1.0299518	-0.29965638	1.4822639	1.0660235	0.18587088	1.9132151	0.9707504	-0.25609196	1.5585263	0.84273134	0.23427719
506	2.02	1.6398815	0.032845669	-0.11782017	1.8682692	0.071413611	0.11363417	1.5168564	0.078228724	-0.13846522	1.7392873	0.1115038	0.10879131	1.5183094	0.093192735	-0.052438834	1.7762436	0.13167098	0.028061531	1.441985	0.057871685	-0.092010206	1.6943852	0.093279276	0.036908492	1.618673	0.4387123	-0.1553661	1.8141858	0.49848375	0.12600079	1.5976646	0.44460272	-0.033072344	1.8057021	0.48074878	0.00034158608	1.6335517	0.82924683	-0.22085938	1.6359734	0.82470432	0.12737218	1.7080551	0.87700904	-0.17655835	1.7122776	0.88570891	0.068614052	1.5209434	0.94634574	-0.046524644	1.6615665	1.3619204	-0.24242562	1.6219426	1.3513966	0.11956907	1.5627921	1.3920518	-0.07166809	1.6765722	1.0293842	-0.30084939	1.4854742	1.0664554	0.18509372	1.9206228	0.97420694	-0.25452058	1.5584378	0.84256803	0.235274
